<?xml version="1.0" encoding="utf-8"?>
<!-- Generator: Adobe Illustrator 16.0.4, SVG Export Plug-In . SVG Version: 6.00 Build 0)  -->
<!DOCTYPE svg PUBLIC "-//W3C//DTD SVG 1.1//EN" "http://www.w3.org/Graphics/SVG/1.1/DTD/svg11.dtd">
<svg version="1.1" id="Layer_1" xmlns="http://www.w3.org/2000/svg" xmlns:xlink="http://www.w3.org/1999/xlink" x="0px" y="0px"
	 width="108px" height="28.55px" viewBox="0 0 108 28.55" enable-background="new 0 0 108 28.55" xml:space="preserve">
<g>
	<defs>
		<rect id="SVGID_1_" width="107.062" height="28.55"/>
	</defs>
	<clipPath id="SVGID_2_">
		<use xlink:href="#SVGID_1_"  overflow="visible"/>
	</clipPath>
	<path clip-path="url(#SVGID_2_)" fill="#B72025" d="M13,0.516C12.49,0.517,0.516,0.679,0.516,13v2.55
		C0.517,16.059,0.678,28.033,13,28.033h81.062c0.509-0.001,12.484-0.161,12.484-12.483V13c-0.002-0.51-0.164-12.484-12.484-12.484
		H13z"/>
	<path clip-path="url(#SVGID_2_)" fill="none" d="M13,0.516C12.49,0.517,0.516,0.679,0.516,13v2.55
		C0.517,16.059,0.678,28.033,13,28.033h81.062c0.509-0.001,12.484-0.161,12.484-12.483V13c-0.002-0.51-0.164-12.484-12.484-12.484
		H13z"/>
</g>
<text transform="matrix(1 0 0 1 19.7002 19.2842)" fill="#FFFFFF" font-family="'Arial-BoldMT'" font-size="14">ADD ITEM</text>
</svg>
