<?xml version="1.0" encoding="utf-8"?>
<!-- Generator: Adobe Illustrator 16.0.4, SVG Export Plug-In . SVG Version: 6.00 Build 0)  -->
<!DOCTYPE svg PUBLIC "-//W3C//DTD SVG 1.1//EN" "http://www.w3.org/Graphics/SVG/1.1/DTD/svg11.dtd">
<svg version="1.1" id="Layer_1" xmlns="http://www.w3.org/2000/svg" xmlns:xlink="http://www.w3.org/1999/xlink" x="0px" y="0px"
	 width="1224px" height="792px" viewBox="0 0 1224 792" enable-background="new 0 0 1224 792" xml:space="preserve">
<g>
	<g>
		<polygon fill="#EC008C" points="300.199,396 263.705,362.069 263.705,429.931 		"/>
		<polygon fill="#EC008C" points="300.062,396.001 336.557,429.932 336.557,362.069 		"/>
	</g>
	<path fill="#EC008C" d="M1338.363,423.913c0,0,29.945,0,29.945-26v-3.181c0,0,0-26-29.945-26H348.255c0,0-29.946,0-29.946,26v3.181
		c0,0,0,26,29.946,26H1338.363z"/>
	<path fill="#EC008C" d="M256.004,423.913c0,0,25.948,0,25.948-26v-3.181c0,0,0-26-25.948-26h-857.923c0,0-25.948,0-25.948,26v3.181
		c0,0,0,26,25.948,26H256.004z"/>
</g>
<g>
	<path fill="#FFFFFF" d="M358.626,386.163v-3.401c-1.859-0.817-3.791-1.227-5.798-1.227c-2.119,0-4.098,0.409-5.938,1.227
		c-1.84,0.818-3.457,1.942-4.851,3.373c-1.394,1.432-2.49,3.094-3.289,4.989c-0.8,1.896-1.199,3.903-1.199,6.021
		s0.399,4.126,1.199,6.021c0.799,1.896,1.896,3.54,3.289,4.934c1.394,1.394,3.011,2.5,4.851,3.317s3.819,1.227,5.938,1.227
		c2.75,0,5.296-0.688,7.638-2.063l2.509,3.68c-1.487,0.855-3.076,1.533-4.767,2.035c-1.692,0.502-3.484,0.753-5.38,0.753
		c-2.751,0-5.334-0.521-7.75-1.562c-2.417-1.04-4.525-2.462-6.328-4.265c-1.803-1.803-3.225-3.911-4.265-6.328
		c-1.041-2.415-1.561-4.998-1.561-7.749c0-2.75,0.52-5.343,1.561-7.777c1.04-2.434,2.462-4.553,4.265-6.355
		c1.802-1.803,3.911-3.233,6.328-4.293c2.416-1.06,4.999-1.589,7.75-1.589c1.896,0,3.688,0.242,5.38,0.725
		c1.691,0.483,3.298,1.171,4.822,2.063v6.244H358.626z"/>
	<path fill="#FFFFFF" d="M381.372,412.198h4.293v-8.68c-0.075-1.008-0.438-1.876-1.087-2.604c-0.651-0.729-1.682-1.13-3.094-1.205
		c-0.967,0-1.887,0.168-2.76,0.505c-0.874,0.336-1.645,0.802-2.313,1.399c-0.669,0.598-1.208,1.307-1.617,2.128
		c-0.409,0.821-0.613,1.717-0.613,2.688v5.769h3.513v4.404h-12.377v-4.404h4.237v-33.005h-4.237v-4.404h8.864v23.75l-0.167,2.509
		c0.817-1.82,2.007-3.224,3.568-4.209c1.561-0.984,3.401-1.533,5.52-1.645c2.192,0,3.921,0.576,5.185,1.729
		c1.263,1.152,1.932,2.657,2.007,4.516v10.76h3.457v4.404h-12.377V412.198z"/>
	<path fill="#FFFFFF" d="M394.918,406.177c0-1.449,0.288-2.843,0.864-4.181c0.576-1.338,1.366-2.509,2.37-3.513
		c1.003-1.003,2.192-1.802,3.568-2.397c1.375-0.594,2.843-0.892,4.404-0.892c1.003,0,1.932,0.148,2.788,0.446
		c0.854,0.298,1.598,0.622,2.23,0.976c0.631,0.354,1.133,0.696,1.505,1.031c0.371,0.334,0.557,0.558,0.557,0.669
		c0-0.408,0.037-0.836,0.112-1.282c0.074-0.446,0.111-0.893,0.111-1.338h3.847v16.502h4.237v4.404h-8.307v-1.115v-1.115
		c-0.037,0.112-0.223,0.316-0.557,0.613c-0.334,0.298-0.809,0.604-1.422,0.92c-0.613,0.316-1.348,0.596-2.202,0.837
		c-0.855,0.241-1.821,0.362-2.899,0.362c-1.561,0-3.03-0.288-4.404-0.864c-1.375-0.576-2.564-1.366-3.568-2.369
		c-1.004-1.004-1.794-2.165-2.37-3.484C395.206,409.067,394.918,407.664,394.918,406.177z M399.546,406.121
		c0,1.821,0.606,3.354,1.82,4.6c1.212,1.246,2.79,1.868,4.731,1.868s3.518-0.622,4.731-1.868c1.212-1.245,1.82-2.778,1.82-4.6
		c0-1.857-0.607-3.391-1.82-4.6c-1.213-1.207-2.79-1.812-4.731-1.812s-3.519,0.604-4.731,1.812
		C400.152,402.73,399.546,404.264,399.546,406.121z"/>
	<path fill="#FFFFFF" d="M439.854,412.198h4.293v-8.68c-0.075-1.008-0.438-1.876-1.087-2.604c-0.651-0.729-1.682-1.13-3.094-1.205
		c-0.967,0-1.887,0.169-2.76,0.506c-0.874,0.338-1.645,0.807-2.313,1.406c-0.669,0.6-1.208,1.312-1.617,2.136
		c-0.409,0.824-0.613,1.725-0.613,2.698v5.742h3.513v4.404h-12.377v-4.404h4.237v-12.098h-3.68v-4.404h7.75v0.501
		c0.074,0.893,0.139,1.701,0.195,2.426s0.121,1.533,0.195,2.425c0.743-1.784,1.942-3.205,3.596-4.265
		c1.653-1.06,3.484-1.589,5.492-1.589c2.192,0,3.921,0.576,5.185,1.729c1.263,1.152,1.932,2.657,2.007,4.516v10.76h3.457v4.404
		h-12.377V412.198z"/>
	<path fill="#FFFFFF" d="M471.352,395.696h8.084v4.404h-4.237v19.847c0,1.486-0.288,2.871-0.864,4.153
		c-0.577,1.282-1.366,2.397-2.37,3.346c-1.003,0.947-2.174,1.7-3.512,2.258s-2.788,0.836-4.349,0.836
		c-1.672,0-3.289-0.362-4.85-1.087s-2.899-1.478-4.014-2.258l3.066-3.791c0.743,0.558,1.607,1.087,2.592,1.589
		c0.984,0.502,2.016,0.753,3.094,0.753c0.966,0,1.848-0.168,2.648-0.502c0.799-0.335,1.496-0.79,2.091-1.366
		c0.594-0.576,1.05-1.264,1.366-2.062c0.315-0.8,0.474-1.664,0.474-2.593v-3.735c0.074-0.147,0.148-0.307,0.223-0.474
		c0.074-0.167,0.148-0.343,0.223-0.529c-0.111,0.187-0.354,0.418-0.725,0.696c-0.372,0.279-0.855,0.558-1.45,0.837
		c-0.595,0.278-1.292,0.521-2.09,0.725c-0.8,0.203-1.701,0.307-2.704,0.307c-1.561,0-3.03-0.289-4.404-0.864
		c-1.375-0.576-2.564-1.356-3.568-2.342c-1.004-0.984-1.794-2.137-2.37-3.456c-0.577-1.319-0.864-2.723-0.864-4.21
		c0-1.449,0.288-2.843,0.864-4.181c0.576-1.338,1.366-2.509,2.37-3.513c1.003-1.003,2.192-1.802,3.568-2.397
		c1.375-0.594,2.843-0.892,4.404-0.892c1.003,0,1.932,0.148,2.788,0.446c0.854,0.298,1.598,0.622,2.23,0.976
		c0.631,0.354,1.133,0.696,1.505,1.031c0.371,0.334,0.557,0.558,0.557,0.669c0-0.408,0.037-0.836,0.112-1.282
		C471.314,396.588,471.352,396.142,471.352,395.696z M457.47,406.094c0,1.813,0.606,3.341,1.82,4.58
		c1.212,1.239,2.79,1.859,4.731,1.859s3.518-0.62,4.731-1.859c1.212-1.239,1.82-2.767,1.82-4.58c0-1.851-0.607-3.377-1.82-4.58
		c-1.213-1.202-2.79-1.804-4.731-1.804s-3.519,0.602-4.731,1.804C458.077,402.717,457.47,404.243,457.47,406.094z"/>
	<path fill="#FFFFFF" d="M500.677,404.449c-2.528,0.929-5.045,1.858-7.554,2.787c-2.509,0.93-5.027,1.859-7.554,2.788
		c0.558,0.78,1.291,1.403,2.202,1.867c0.91,0.465,1.941,0.697,3.094,0.697c1.709,0,3.122-0.595,4.237-1.784l2.843,3.345
		c-0.929,0.93-1.989,1.654-3.178,2.175c-1.19,0.52-2.49,0.78-3.902,0.78c-1.561,0-3.02-0.288-4.376-0.864
		c-1.357-0.576-2.537-1.366-3.54-2.369c-1.004-1.004-1.794-2.165-2.37-3.484c-0.577-1.319-0.864-2.741-0.864-4.266
		c0-1.485,0.288-2.898,0.864-4.236c0.576-1.339,1.366-2.5,2.37-3.485c1.003-0.983,2.183-1.765,3.54-2.341
		c1.356-0.576,2.815-0.864,4.376-0.864c1.151,0,2.258,0.232,3.317,0.697c1.06,0.465,2.007,1.105,2.843,1.923
		c0.836,0.818,1.57,1.794,2.202,2.927C499.859,401.876,500.342,403.111,500.677,404.449z M490.865,399.71
		c-1.896,0-3.438,0.567-4.627,1.7c-1.19,1.135-1.821,2.556-1.896,4.266c1.747-0.632,3.484-1.273,5.213-1.924
		c1.728-0.649,3.465-1.291,5.212-1.924c-0.521-0.631-1.106-1.143-1.756-1.532C492.36,399.905,491.645,399.71,490.865,399.71z"/>
</g>
<g>
	<defs>
		<rect id="SVGID_1_" x="-7" y="359.293" width="1238" height="74.707"/>
	</defs>
	<clipPath id="SVGID_2_">
		<use xlink:href="#SVGID_1_"  overflow="visible"/>
	</clipPath>
	<path clip-path="url(#SVGID_2_)" fill="none" stroke="#FFFFFF" stroke-width="1.8" d="M277.134,431.36
		c7.459-7.459,14.917-14.917,22.376-22.376l0.636-0.636l0.636,0.636c7.404,7.404,14.807,14.807,22.211,22.21l12.137-12.137
		c-7.404-7.403-14.807-14.807-22.21-22.21l-0.637-0.637l0.637-0.637c7.513-7.513,15.027-15.026,22.541-22.541
		c-4.156-4.156-8.312-8.312-12.468-12.468c-7.514,7.514-15.028,15.027-22.542,22.541l-0.636,0.637l-0.636-0.637
		c-7.404-7.403-14.807-14.806-22.211-22.21c-4.045,4.046-8.091,8.092-12.137,12.137c7.404,7.404,14.807,14.808,22.21,22.21
		l0.637,0.638l-0.637,0.636c-7.458,7.459-14.917,14.917-22.375,22.376C268.822,423.049,272.978,427.204,277.134,431.36z"/>
</g>
<g>
	<defs>
		<rect id="SVGID_3_" x="-7" y="358.695" width="1238" height="74.708"/>
	</defs>
	<clipPath id="SVGID_4_">
		<use xlink:href="#SVGID_3_"  overflow="visible"/>
	</clipPath>
</g>
<g>
	<defs>
		<rect id="SVGID_5_" x="-7" y="359.293" width="1238" height="74.707"/>
	</defs>
	<clipPath id="SVGID_6_">
		<use xlink:href="#SVGID_5_"  overflow="visible"/>
	</clipPath>
	<path clip-path="url(#SVGID_6_)" fill="none" stroke="#B9539F" stroke-width="30.35" d="M325.332,395.984"/>
	<path clip-path="url(#SVGID_6_)" fill="none" stroke="#B9539F" stroke-width="30.35" d="M432.48,395.984"/>
</g>
<g>
	<defs>
		<rect id="SVGID_7_" x="-7" y="359.293" width="1238" height="74.707"/>
	</defs>
	<clipPath id="SVGID_8_">
		<use xlink:href="#SVGID_7_"  overflow="visible"/>
	</clipPath>
	<path clip-path="url(#SVGID_8_)" fill="none" stroke="#B9539F" stroke-width="30.35" d="M432.48,395.663"/>
</g>
<g>
	<defs>
		<rect id="SVGID_9_" x="-7" y="358.695" width="1238" height="74.708"/>
	</defs>
	<clipPath id="SVGID_10_">
		<use xlink:href="#SVGID_9_"  overflow="visible"/>
	</clipPath>
</g>
<g>
	<defs>
		<rect id="SVGID_11_" x="128.855" y="366.545" width="158.676" height="57.298"/>
	</defs>
	<clipPath id="SVGID_12_">
		<use xlink:href="#SVGID_11_"  overflow="visible"/>
	</clipPath>
	<g clip-path="url(#SVGID_12_)">
		<path fill="#FFFFFF" d="M148.998,411.338v-6.586h4.486v5.053c0.984,0.758,2.158,1.41,3.521,1.959s2.896,0.824,4.6,0.824
			c0.984,0,1.931-0.143,2.839-0.426c0.909-0.285,1.712-0.701,2.414-1.25c0.7-0.549,1.258-1.24,1.675-2.072
			c0.417-0.832,0.625-1.799,0.625-2.896c0-1.969-0.455-3.482-1.363-4.543c-0.909-1.059-2.044-1.883-3.407-2.469
			c-1.363-0.588-2.839-1.088-4.429-1.506c-1.59-0.416-3.076-0.984-4.457-1.704c-1.382-0.719-2.537-1.722-3.464-3.009
			c-0.928-1.287-1.411-3.104-1.448-5.451c-0.038-1.25,0.132-2.499,0.511-3.748c0.378-1.249,1.002-2.385,1.874-3.407
			c0.87-1.021,2.024-1.854,3.463-2.498c1.438-0.644,3.199-0.966,5.281-0.966c0.682,0,1.42,0.038,2.215,0.114
			s1.627,0.227,2.499,0.454c0.87,0.227,1.769,0.567,2.697,1.021c0.927,0.455,1.846,1.061,2.754,1.817v5.564h-4.486v-3.35
			c-0.72-0.303-1.553-0.568-2.499-0.795c-0.947-0.228-1.987-0.341-3.123-0.341c-2.196,0-3.824,0.624-4.883,1.874
			c-1.061,1.249-1.59,2.726-1.59,4.429c0,1.136,0.265,2.054,0.795,2.754c0.529,0.701,1.229,1.287,2.101,1.761
			c0.871,0.474,1.864,0.88,2.981,1.221c1.116,0.341,2.251,0.71,3.407,1.107c1.154,0.397,2.29,0.871,3.407,1.419
			c1.116,0.55,2.11,1.269,2.981,2.158c0.871,0.891,1.57,1.988,2.101,3.293c0.53,1.307,0.795,2.926,0.795,4.855
			c0,1.703-0.312,3.236-0.937,4.6s-1.477,2.527-2.555,3.492c-1.079,0.965-2.338,1.703-3.776,2.215
			c-1.439,0.512-2.953,0.766-4.543,0.766c-1.439,0-2.839-0.16-4.202-0.482c-1.363-0.32-2.612-0.746-3.748-1.277
			c-1.135-0.529-2.149-1.135-3.038-1.816C150.181,412.814,149.49,412.096,148.998,411.338z"/>
		<path fill="#FFFFFF" d="M180.001,381.47h4.713v13.854h5.564v4.599h-5.564v12.209h4.259v4.486h-8.972v-16.695h-4.77v-4.599h4.77
			V381.47z"/>
		<path fill="#FFFFFF" d="M192.606,395.325h8.461v13.332c0.075,1.025,0.444,1.908,1.107,2.65c0.662,0.74,1.712,1.148,3.152,1.225
			c0.984,0,1.92-0.172,2.811-0.516c0.889-0.344,1.675-0.822,2.356-1.432c0.682-0.611,1.229-1.336,1.647-2.176
			c0.416-0.84,0.625-1.756,0.625-2.748v-5.85h-3.748v-4.486h8.461v17.32h3.521v3.975h-8.233v-2.896l0.17-2.555
			c-0.758,1.816-1.979,3.264-3.663,4.344c-1.685,1.078-3.549,1.617-5.593,1.617c-2.234,0-3.994-0.586-5.281-1.76
			c-1.288-1.172-1.969-2.705-2.044-4.6v-10.959h-3.748V395.325z"/>
		<path fill="#FFFFFF" d="M223.269,412.133h3.464v-12.209h-3.464v-4.599h3.407v-8.062c0-2.12,0.35-3.994,1.05-5.622
			c0.7-1.627,1.656-3,2.868-4.116c1.211-1.116,2.659-1.968,4.344-2.556c1.684-0.586,3.492-0.917,5.423-0.993v4.485
			c-2.596,0.151-4.731,0.984-6.404,2.498c-1.674,1.515-2.511,3.673-2.511,6.474v7.893h6.644v4.599h-6.644v12.209h4.486v4.486
			h-12.663V412.133z"/>
		<path fill="#FFFFFF" d="M240.588,412.133h3.464v-12.209h-3.464v-4.599h3.407v-8.062c0-2.12,0.35-3.994,1.05-5.622
			c0.7-1.627,1.656-3,2.868-4.116c1.211-1.116,2.659-1.968,4.344-2.556c1.684-0.586,3.492-0.917,5.423-0.993v4.485
			c-2.596,0.151-4.731,0.984-6.404,2.498c-1.674,1.515-2.511,3.673-2.511,6.474v7.893h6.644v4.599h-6.644v12.209h4.486v4.486
			h-12.663V412.133z"/>
	</g>
</g>
</svg>
