<?xml version="1.0" encoding="utf-8"?>
<!-- Generator: Adobe Illustrator 16.0.4, SVG Export Plug-In . SVG Version: 6.00 Build 0)  -->
<!DOCTYPE svg PUBLIC "-//W3C//DTD SVG 1.1//EN" "http://www.w3.org/Graphics/SVG/1.1/DTD/svg11.dtd">
<svg version="1.1" id="Layer_1" xmlns="http://www.w3.org/2000/svg" xmlns:xlink="http://www.w3.org/1999/xlink" x="0px" y="0px"
	 width="1996px" height="75px" viewBox="0 0 1996 75" enable-background="new 0 0 1996 75" xml:space="preserve">
<g>
	<path fill="#FF00FF" d="M1601.506,60.854c0,0,24.389,0,24.389-21.177v-2.591c0,0,0-21.177-24.389-21.177H795.059
		c0,0-24.391,0-24.391,21.177v2.591c0,0,0,21.177,24.391,21.177H1601.506z"/>
	<g>
		<g>
			<polygon fill="#FF00FF" points="755.917,38.119 726.192,10.482 726.192,65.758 			"/>
			<polygon fill="#FF00FF" points="755.806,38.121 785.53,65.758 785.53,10.482 			"/>
		</g>
		<path fill="#FF00FF" d="M719.919,60.854c0,0,21.135,0,21.135-21.177v-2.591c0,0,0-21.177-21.135-21.177H21.136
			c0,0-21.136,0-21.136,21.177v2.591c0,0,0,21.177,21.136,21.177H719.919z"/>
		<g>
			<g>
				<path fill="#FFFFFF" d="M639.718,51.449v-4.812h1.815v4.088c0.853,0.762,1.888,1.404,3.106,1.93
					c1.218,0.529,2.663,0.798,4.339,0.798c1.005,0,1.987-0.158,2.947-0.478c0.959-0.32,1.805-0.771,2.535-1.365
					c0.732-0.59,1.316-1.307,1.758-2.155c0.441-0.847,0.662-1.815,0.662-2.907c0-1.331-0.228-2.423-0.685-3.27
					c-0.457-0.848-1.052-1.543-1.782-2.086c-0.731-0.549-1.566-0.983-2.51-1.315c-0.941-0.334-1.911-0.644-2.899-0.933
					c-0.991-0.286-1.963-0.596-2.925-0.932c-0.959-0.332-1.827-0.771-2.602-1.317c-0.775-0.545-1.408-1.232-1.896-2.065
					c-0.487-0.832-0.761-1.899-0.821-3.202c-0.061-1,0.062-2.005,0.361-3.019c0.303-1.015,0.788-1.922,1.455-2.729
					c0.665-0.798,1.528-1.46,2.589-1.976c1.06-0.514,2.346-0.768,3.859-0.768c0.514,0,1.073,0.027,1.68,0.089
					s1.226,0.167,1.862,0.32c0.635,0.153,1.27,0.38,1.906,0.682c0.636,0.303,1.239,0.696,1.815,1.178v4.904h-1.815v-3.997
					c-0.578-0.364-1.334-0.682-2.266-0.953c-0.93-0.273-2.021-0.411-3.271-0.411c-1.068,0-1.998,0.176-2.791,0.523
					c-0.795,0.353-1.457,0.816-1.99,1.409c-0.535,0.591-0.932,1.272-1.19,2.042c-0.26,0.771-0.388,1.567-0.388,2.385
					c0,1.091,0.229,1.986,0.684,2.68c0.457,0.695,1.059,1.272,1.806,1.725c0.747,0.456,1.599,0.832,2.556,1.136
					c0.959,0.303,1.941,0.604,2.948,0.906c1.004,0.303,1.985,0.661,2.946,1.07c0.959,0.407,1.818,0.937,2.578,1.59
					c0.764,0.652,1.377,1.478,1.85,2.474c0.472,1,0.724,2.256,0.752,3.77c0,1.335-0.25,2.545-0.75,3.632
					c-0.5,1.091-1.182,2.021-2.043,2.794c-0.863,0.771-1.884,1.362-3.065,1.771c-1.181,0.408-2.422,0.613-3.723,0.613
					c-1.181,0-2.272-0.119-3.269-0.359c-1-0.244-1.9-0.555-2.703-0.934c-0.804-0.377-1.491-0.798-2.067-1.25
					C640.506,52.266,640.052,51.844,639.718,51.449z"/>
				<path fill="#FFFFFF" d="M663.965,26.791h1.817v11.082h5.221v1.814h-5.221v13.398h3.723V54.9h-5.541V39.688h-3.951v-1.816h3.951
					L663.965,26.791L663.965,26.791z"/>
				<path fill="#FFFFFF" d="M672.958,37.872h5.176v11.841c0.062,0.971,0.422,1.818,1.083,2.551c0.657,0.73,1.63,1.125,2.918,1.185
					c0.951,0,1.854-0.159,2.712-0.479c0.858-0.32,1.609-0.754,2.253-1.301c0.643-0.545,1.155-1.199,1.538-1.957
					c0.384-0.762,0.575-1.596,0.575-2.506v-7.518h-3.359v-1.815h5.177v15.392h3.224v1.635h-4.812l-0.092-2.358v-2.044
					c-0.609,1.449-1.593,2.611-2.948,3.475c-1.357,0.863-2.874,1.297-4.552,1.297c-1.675,0-3.002-0.471-3.979-1.41
					c-0.977-0.938-1.493-2.162-1.554-3.68v-10.49h-3.359V37.872L672.958,37.872z"/>
				<path fill="#FFFFFF" d="M696.57,53.086h2.77V39.688h-2.77v-1.814h2.77v-6.496c0-1.664,0.241-3.146,0.725-4.45
					c0.483-1.303,1.151-2.392,2-3.27c0.847-0.878,1.847-1.552,2.996-2.02c1.149-0.466,2.375-0.73,3.68-0.796v1.817
					c-1.036,0.029-2.02,0.245-2.947,0.634c-0.93,0.393-1.736,0.97-2.422,1.726c-0.688,0.755-1.225,1.666-1.622,2.725
					c-0.396,1.062-0.594,2.256-0.594,3.587v6.54h5.721v1.815h-5.721V53.08h4.131v1.814h-8.72L696.57,53.086L696.57,53.086z"/>
				<path fill="#FFFFFF" d="M709.873,53.086h2.771V39.688h-2.771v-1.814h2.771v-6.496c0-1.664,0.239-3.146,0.726-4.45
					c0.483-1.303,1.149-2.392,1.998-3.27c0.848-0.878,1.847-1.552,2.996-2.02c1.149-0.466,2.375-0.73,3.682-0.796v1.817
					c-1.037,0.029-2.019,0.245-2.949,0.634c-0.929,0.393-1.735,0.97-2.421,1.726c-0.686,0.755-1.226,1.666-1.621,2.725
					c-0.396,1.062-0.595,2.256-0.595,3.587v6.54h5.722v1.815h-5.722V53.08h4.131v1.814h-8.717L709.873,53.086L709.873,53.086z"/>
			</g>
			<g>
				<path fill="#FFFFFF" d="M803.507,30.107v-2.77c-1.516-0.664-3.089-1-4.722-1c-1.725,0-3.338,0.333-4.838,1
					c-1.499,0.666-2.813,1.582-3.95,2.747c-1.136,1.169-2.028,2.52-2.678,4.064c-0.653,1.543-0.979,3.178-0.979,4.903
					c0,1.727,0.325,3.364,0.979,4.907c0.649,1.543,1.543,2.881,2.678,4.017c1.135,1.141,2.451,2.039,3.95,2.705
					c1.5,0.663,3.111,0.997,4.838,0.997c2.239,0,4.312-0.561,6.22-1.68l2.044,2.996c-1.211,0.696-2.505,1.25-3.882,1.659
					c-1.378,0.408-2.837,0.613-4.381,0.613c-2.242,0-4.345-0.425-6.313-1.272c-1.969-0.847-3.685-2.005-5.153-3.476
					c-1.466-1.471-2.626-3.186-3.475-5.154c-0.848-1.969-1.27-4.07-1.27-6.312c0-2.239,0.424-4.352,1.27-6.331
					c0.849-1.985,2.009-3.71,3.475-5.176c1.469-1.469,3.186-2.63,5.153-3.497c1.967-0.863,4.072-1.294,6.313-1.294
					c1.543,0,3.003,0.198,4.381,0.592c1.377,0.393,2.687,0.956,3.928,1.68v5.085L803.507,30.107L803.507,30.107z"/>
				<path fill="#FFFFFF" d="M822.034,51.312h3.497V44.24c-0.062-0.82-0.357-1.527-0.887-2.121s-1.368-0.919-2.52-0.982
					c-0.788,0-1.538,0.139-2.249,0.414c-0.712,0.271-1.339,0.652-1.883,1.135c-0.543,0.49-0.982,1.066-1.317,1.734
					c-0.333,0.667-0.496,1.4-0.496,2.189v4.703h2.86v3.584h-10.08v-3.584h3.45V24.43h-3.45v-3.587h7.222v19.343l-0.137,2.045
					c0.665-1.484,1.633-2.625,2.906-3.429c1.271-0.801,2.77-1.248,4.495-1.339c1.786,0,3.196,0.467,4.225,1.407
					c1.029,0.94,1.575,2.165,1.635,3.682v8.765h2.816v3.586h-10.08v-3.586L822.034,51.312L822.034,51.312z"/>
				<path fill="#FFFFFF" d="M833.066,46.41c0-1.184,0.233-2.316,0.703-3.407c0.469-1.091,1.111-2.044,1.931-2.862
					c0.817-0.813,1.783-1.471,2.905-1.951c1.119-0.483,2.316-0.728,3.587-0.728c0.816,0,1.571,0.119,2.269,0.361
					c0.697,0.243,1.303,0.507,1.815,0.799c0.517,0.289,0.926,0.565,1.228,0.839c0.3,0.271,0.454,0.456,0.454,0.544
					c0-0.332,0.031-0.678,0.092-1.042c0.056-0.363,0.089-0.73,0.089-1.089h3.135v13.44h3.448V54.9h-6.768v-0.907v-0.908
					c-0.028,0.09-0.183,0.258-0.456,0.498c-0.271,0.243-0.659,0.491-1.159,0.749c-0.496,0.257-1.098,0.484-1.791,0.684
					c-0.697,0.195-1.483,0.293-2.36,0.293c-1.272,0-2.469-0.233-3.589-0.701c-1.118-0.469-2.086-1.112-2.902-1.931
					c-0.818-0.815-1.459-1.762-1.932-2.837C833.298,48.764,833.066,47.62,833.066,46.41z M836.836,46.361
					c0,1.484,0.494,2.732,1.482,3.75c0.986,1.014,2.271,1.52,3.851,1.52c1.58,0,2.87-0.506,3.856-1.52
					c0.986-1.016,1.479-2.264,1.479-3.75c0-1.512-0.492-2.762-1.479-3.743c-0.987-0.983-2.274-1.478-3.856-1.478
					c-1.579,0-2.866,0.489-3.851,1.478C837.33,43.602,836.836,44.852,836.836,46.361z"/>
				<path fill="#FFFFFF" d="M869.666,51.312h3.497V44.24c-0.056-0.82-0.356-1.527-0.883-2.121c-0.527-0.596-1.371-0.919-2.521-0.982
					c-0.788,0-1.539,0.139-2.247,0.414c-0.712,0.275-1.342,0.658-1.885,1.145c-0.544,0.488-0.982,1.068-1.312,1.74
					c-0.334,0.67-0.5,1.408-0.5,2.197v4.676h2.859v3.586h-10.082v-3.586h3.452v-9.854h-3v-3.584h6.313v0.408
					c0.057,0.728,0.113,1.385,0.158,1.977c0.049,0.59,0.097,1.249,0.158,1.977c0.605-1.453,1.581-2.611,2.93-3.474
					c1.346-0.866,2.838-1.296,4.473-1.296c1.785,0,3.193,0.466,4.226,1.409c1.03,0.938,1.574,2.164,1.636,3.679v8.768h2.815V54.9
					H869.67v-3.586h-0.003L869.666,51.312L869.666,51.312z"/>
				<path fill="#FFFFFF" d="M895.322,37.872h6.584v3.585h-3.447v16.168c0,1.207-0.236,2.339-0.705,3.38
					c-0.469,1.042-1.111,1.952-1.93,2.728c-0.818,0.769-1.771,1.386-2.861,1.841c-1.089,0.454-2.269,0.683-3.542,0.683
					c-1.364,0-2.679-0.296-3.952-0.888c-1.27-0.591-2.357-1.203-3.268-1.839l2.494-3.088c0.604,0.455,1.307,0.886,2.112,1.295
					c0.802,0.406,1.643,0.611,2.521,0.611c0.786,0,1.505-0.137,2.155-0.408c0.653-0.271,1.219-0.644,1.703-1.11
					c0.483-0.472,0.856-1.029,1.111-1.681c0.257-0.653,0.389-1.355,0.389-2.115v-3.04c0.056-0.123,0.119-0.255,0.184-0.392
					c0.058-0.136,0.12-0.277,0.181-0.429c-0.09,0.152-0.29,0.341-0.592,0.563c-0.301,0.229-0.696,0.459-1.18,0.684
					c-0.485,0.227-1.054,0.426-1.703,0.592c-0.65,0.164-1.384,0.25-2.2,0.25c-1.271,0-2.468-0.234-3.588-0.701
					c-1.119-0.467-2.086-1.104-2.905-1.908c-0.817-0.801-1.46-1.74-1.931-2.814c-0.471-1.072-0.702-2.22-0.702-3.429
					c0-1.179,0.233-2.313,0.702-3.405c0.47-1.09,1.111-2.044,1.931-2.861c0.817-0.814,1.784-1.472,2.905-1.951
					c1.121-0.484,2.318-0.729,3.588-0.729c0.816,0,1.574,0.119,2.27,0.361c0.695,0.244,1.303,0.507,1.815,0.799
					c0.514,0.287,0.924,0.562,1.228,0.84c0.302,0.273,0.453,0.455,0.453,0.545c0-0.332,0.03-0.68,0.094-1.044
					C895.291,38.598,895.322,38.234,895.322,37.872z M884.016,46.341c0,1.478,0.494,2.722,1.482,3.731
					c0.99,1.01,2.273,1.514,3.854,1.514c1.579,0,2.866-0.504,3.853-1.514c0.985-1.01,1.483-2.254,1.483-3.731
					c0-1.507-0.494-2.749-1.483-3.731c-0.987-0.978-2.273-1.467-3.853-1.467c-1.58,0-2.867,0.489-3.854,1.467
					C884.509,43.592,884.016,44.834,884.016,46.341z"/>
				<path fill="#FFFFFF" d="M919.208,45.002c-2.056,0.756-4.109,1.514-6.154,2.271c-2.044,0.756-4.095,1.511-6.15,2.271
					c0.454,0.631,1.051,1.141,1.792,1.52c0.736,0.379,1.578,0.566,2.521,0.566c1.394,0,2.543-0.484,3.448-1.453l2.316,2.727
					c-0.759,0.759-1.62,1.346-2.591,1.771c-0.968,0.422-2.024,0.633-3.174,0.633c-1.273,0-2.463-0.231-3.563-0.701
					c-1.107-0.469-2.068-1.11-2.885-1.93c-0.815-0.813-1.46-1.764-1.931-2.84c-0.47-1.072-0.703-2.23-0.703-3.473
					c0-1.211,0.234-2.36,0.703-3.449c0.471-1.092,1.113-2.037,1.931-2.839c0.816-0.802,1.778-1.442,2.885-1.909
					c1.101-0.465,2.289-0.699,3.563-0.699c0.933,0,1.837,0.186,2.696,0.564c0.867,0.379,1.639,0.902,2.318,1.568
					c0.681,0.662,1.275,1.461,1.791,2.385C918.541,42.904,918.934,43.91,919.208,45.002z M911.215,41.143
					c-1.544,0-2.8,0.461-3.77,1.385c-0.969,0.924-1.482,2.08-1.544,3.472c1.422-0.513,2.839-1.035,4.245-1.563
					c1.409-0.527,2.822-1.052,4.246-1.566c-0.425-0.514-0.899-0.934-1.431-1.246C912.433,41.3,911.852,41.143,911.215,41.143z"/>
			</g>
		</g>
		<g>
			<g>
				<g>
					<g>
						<g>
							<g>
								<g>
									<g>
										<g>
											<defs>
												<rect id="SVGID_1_" x="505.701" y="8.223" width="1008.357" height="60.849"/>
											</defs>
											<clipPath id="SVGID_2_">
												<use xlink:href="#SVGID_1_"  overflow="visible"/>
											</clipPath>
											<path clip-path="url(#SVGID_2_)" fill="none" stroke="#FFFFFF" stroke-width="1.4661" d="M737.13,66.92
												c6.076-6.074,12.148-12.148,18.226-18.225l0.519-0.521l0.517,0.521c6.03,6.029,12.062,12.061,18.092,18.09l9.886-9.887
												c-6.03-6.028-12.06-12.062-18.09-18.092l-0.521-0.52l0.521-0.518c6.118-6.121,12.238-12.238,18.358-18.361
												c-3.385-3.384-6.77-6.769-10.154-10.154c-6.119,6.121-12.239,12.239-18.36,18.359l-0.519,0.52l-0.518-0.52
												c-6.03-6.028-12.061-12.062-18.092-18.092c-3.293,3.299-6.59,6.594-9.885,9.888c6.029,6.029,12.06,12.062,18.091,18.091
												l0.516,0.52l-0.516,0.518c-6.075,6.076-12.15,12.152-18.227,18.227C730.361,60.15,733.744,63.535,737.13,66.92z"/>
										</g>
									</g>
								</g>
							</g>
						</g>
					</g>
				</g>
			</g>
		</g>
		<g>
			<g>
				<g>
					<g>
						<g>
							<g>
								<g>
									<g>
										<g>
											<defs>
												<rect id="SVGID_3_" x="505.701" y="8.223" width="1008.357" height="60.849"/>
											</defs>
											<clipPath id="SVGID_4_">
												<use xlink:href="#SVGID_3_"  overflow="visible"/>
											</clipPath>
											<path clip-path="url(#SVGID_4_)" fill="none" stroke="#B8539E" stroke-width="24.7203" d="M776.387,38.105"/>
										</g>
									</g>
								</g>
							</g>
						</g>
					</g>
				</g>
			</g>
			<g>
				<g>
					<g>
						<g>
							<g>
								<g>
									<g>
										<g>
											<defs>
												<rect id="SVGID_5_" x="505.701" y="8.223" width="1008.357" height="60.849"/>
											</defs>
											<clipPath id="SVGID_6_">
												<use xlink:href="#SVGID_5_"  overflow="visible"/>
											</clipPath>
											<path clip-path="url(#SVGID_6_)" fill="none" stroke="#B8539E" stroke-width="24.7203" d="M863.661,38.105"/>
										</g>
									</g>
								</g>
							</g>
						</g>
					</g>
				</g>
			</g>
		</g>
		<g>
			<g>
				<g>
					<g>
						<g>
							<g>
								<g>
									<g>
										<g>
											<defs>
												<rect id="SVGID_7_" x="505.701" y="8.223" width="1008.357" height="60.849"/>
											</defs>
											<clipPath id="SVGID_8_">
												<use xlink:href="#SVGID_7_"  overflow="visible"/>
											</clipPath>
											<path clip-path="url(#SVGID_8_)" fill="none" stroke="#B8539E" stroke-width="24.7203" d="M863.661,37.845"/>
										</g>
									</g>
								</g>
							</g>
						</g>
					</g>
				</g>
			</g>
		</g>
	</g>
</g>
<path fill="#FF00FF" d="M1989.506,60.854c0,0,24.389,0,24.389-21.177v-2.591c0,0,0-21.177-24.389-21.177h-806.447
	c0,0-24.391,0-24.391,21.177v2.591c0,0,0,21.177,24.391,21.177H1989.506z"/>
</svg>
