<?xml version="1.0" encoding="utf-8"?>
<!-- Generator: Adobe Illustrator 16.0.4, SVG Export Plug-In . SVG Version: 6.00 Build 0)  -->
<!DOCTYPE svg PUBLIC "-//W3C//DTD SVG 1.1//EN" "http://www.w3.org/Graphics/SVG/1.1/DTD/svg11.dtd">
<svg version="1.1" id="Layer_1" xmlns="http://www.w3.org/2000/svg" xmlns:xlink="http://www.w3.org/1999/xlink" x="0px" y="0px"
	 width="1224px" height="792px" viewBox="0 0 1224 792" enable-background="new 0 0 1224 792" xml:space="preserve">
<g>
	<polygon fill="#FF00FF" points="300.199,396 263.705,362.069 263.705,429.931 	"/>
	<polygon fill="#FF00FF" points="300.062,396.001 336.557,429.932 336.557,362.069 	"/>
</g>
<path fill="#FF00FF" d="M1338.363,423.913c0,0,29.943,0,29.943-26v-3.181c0,0,0-26-29.943-26H348.255c0,0-29.946,0-29.946,26v3.181
	c0,0,0,26,29.946,26H1338.363z"/>
<path fill="#FF00FF" d="M256.004,423.913c0,0,25.948,0,25.948-26v-3.181c0,0,0-26-25.948-26h-857.923c0,0-25.948,0-25.948,26v3.181
	c0,0,0,26,25.948,26H256.004z"/>
<g>
	<g>
		<path fill="#FFFFFF" d="M157.537,412.365v-5.909h2.23v5.018c1.047,0.932,2.318,1.722,3.814,2.369
			c1.495,0.65,3.271,0.978,5.328,0.978c1.233,0,2.44-0.195,3.618-0.585c1.178-0.393,2.215-0.948,3.112-1.675
			c0.897-0.725,1.617-1.605,2.159-2.646c0.542-1.04,0.813-2.229,0.813-3.567c0-1.636-0.28-2.974-0.841-4.015
			c-0.561-1.04-1.289-1.896-2.187-2.564c-0.897-0.669-1.925-1.207-3.083-1.614c-1.158-0.409-2.346-0.79-3.561-1.146
			c-1.214-0.353-2.41-0.731-3.588-1.143c-1.178-0.408-2.243-0.948-3.196-1.617c-0.953-0.669-1.729-1.514-2.327-2.536
			c-0.597-1.021-0.934-2.332-1.009-3.931c-0.075-1.229,0.074-2.462,0.446-3.707c0.371-1.245,0.966-2.36,1.784-3.348
			c0.817-0.982,1.876-1.792,3.178-2.425c1.3-0.632,2.88-0.945,4.739-0.945c0.631,0,1.319,0.035,2.062,0.109
			c0.743,0.074,1.505,0.204,2.286,0.392c0.78,0.187,1.561,0.466,2.341,0.837c0.781,0.372,1.523,0.854,2.23,1.447v6.021h-2.23v-4.906
			c-0.711-0.446-1.639-0.837-2.781-1.171c-1.143-0.335-2.481-0.502-4.017-0.502c-1.311,0-2.453,0.215-3.427,0.642
			c-0.974,0.43-1.788,1.003-2.443,1.729c-0.656,0.726-1.143,1.562-1.461,2.509c-0.319,0.948-0.477,1.924-0.477,2.928
			c0,1.339,0.279,2.437,0.84,3.289c0.561,0.855,1.299,1.562,2.215,2.118c0.916,0.56,1.962,1.022,3.14,1.396
			c1.177,0.372,2.382,0.742,3.616,1.113c1.233,0.372,2.438,0.811,3.616,1.312c1.178,0.501,2.234,1.151,3.168,1.951
			s1.691,1.812,2.271,3.038c0.579,1.227,0.888,2.77,0.925,4.627c0,1.637-0.307,3.122-0.92,4.461
			c-0.613,1.338-1.45,2.479-2.509,3.429c-1.06,0.947-2.314,1.672-3.763,2.174c-1.45,0.502-2.974,0.753-4.572,0.753
			c-1.449,0-2.788-0.147-4.014-0.444c-1.226-0.299-2.333-0.68-3.317-1.145c-0.985-0.465-1.831-0.976-2.537-1.533
			C158.503,413.369,157.946,412.849,157.537,412.365z"/>
		<path fill="#FFFFFF" d="M187.308,382.093h2.23v13.604h6.411v2.229h-6.411v16.446h4.571v2.229h-6.801v-18.677h-4.851v-2.229h4.851
			V382.093z"/>
		<path fill="#FFFFFF" d="M198.346,395.696h6.355v14.538c0.075,1.191,0.518,2.234,1.327,3.131c0.808,0.895,2.003,1.379,3.583,1.453
			c1.167,0,2.276-0.195,3.33-0.587c1.054-0.394,1.976-0.925,2.766-1.596s1.42-1.474,1.891-2.403c0.47-0.935,0.706-1.959,0.706-3.077
			v-9.229h-4.125v-2.229h6.355v18.897h3.958v2.007h-5.911l-0.11-2.897v-2.509c-0.749,1.782-1.956,3.206-3.621,4.266
			c-1.666,1.059-3.528,1.589-5.586,1.589c-2.058,0-3.687-0.576-4.884-1.729c-1.198-1.151-1.833-2.657-1.909-4.518v-12.879h-4.125
			V395.696L198.346,395.696z"/>
		<path fill="#FFFFFF" d="M227.336,414.372h3.401v-16.446h-3.401v-2.229h3.401v-7.975c0-2.044,0.297-3.863,0.892-5.464
			c0.594-1.598,1.412-2.936,2.453-4.014c1.04-1.077,2.267-1.904,3.679-2.48c1.412-0.574,2.917-0.899,4.516-0.977v2.229
			c-1.272,0.036-2.478,0.299-3.618,0.779c-1.141,0.483-2.132,1.19-2.973,2.119c-0.842,0.929-1.504,2.044-1.991,3.345
			c-0.486,1.304-0.729,2.771-0.729,4.404v8.028h7.024v2.229h-7.024v16.446h5.073v2.229h-10.704L227.336,414.372L227.336,414.372z"/>
		<path fill="#FFFFFF" d="M243.67,414.372h3.401v-16.446h-3.401v-2.229h3.401v-7.975c0-2.044,0.297-3.863,0.892-5.464
			c0.594-1.598,1.412-2.936,2.453-4.014c1.04-1.077,2.267-1.904,3.679-2.48c1.412-0.574,2.917-0.899,4.516-0.977v2.229
			c-1.272,0.036-2.478,0.299-3.618,0.779c-1.141,0.483-2.132,1.19-2.973,2.119c-0.842,0.929-1.504,2.044-1.991,3.345
			c-0.486,1.304-0.729,2.771-0.729,4.404v8.028h7.024v2.229H249.3v16.446h5.073v2.229H243.67V414.372z"/>
	</g>
	<g>
		<path fill="#FFFFFF" d="M358.626,386.163v-3.401c-1.859-0.815-3.791-1.227-5.798-1.227c-2.119,0-4.098,0.409-5.938,1.227
			c-1.84,0.818-3.457,1.942-4.851,3.373c-1.394,1.434-2.49,3.094-3.289,4.989c-0.8,1.896-1.199,3.903-1.199,6.021
			c0,2.118,0.399,4.128,1.199,6.021c0.799,1.896,1.896,3.54,3.289,4.934c1.394,1.396,3.011,2.5,4.851,3.317
			c1.84,0.817,3.819,1.227,5.938,1.227c2.75,0,5.296-0.688,7.638-2.062l2.509,3.68c-1.487,0.855-3.076,1.533-4.767,2.035
			c-1.692,0.502-3.484,0.753-5.38,0.753c-2.751,0-5.334-0.521-7.75-1.562c-2.417-1.04-4.525-2.462-6.328-4.267
			c-1.803-1.803-3.225-3.911-4.265-6.328c-1.041-2.415-1.561-4.998-1.561-7.749c0-2.75,0.52-5.343,1.561-7.775
			c1.04-2.436,2.462-4.555,4.265-6.355c1.802-1.803,3.911-3.231,6.328-4.293c2.416-1.06,4.999-1.589,7.75-1.589
			c1.896,0,3.688,0.242,5.38,0.726c1.691,0.482,3.298,1.172,4.822,2.062v6.244L358.626,386.163L358.626,386.163z"/>
		<path fill="#FFFFFF" d="M381.372,412.198h4.293v-8.682c-0.075-1.008-0.438-1.876-1.087-2.604c-0.651-0.729-1.682-1.13-3.094-1.205
			c-0.967,0-1.887,0.168-2.76,0.505c-0.874,0.336-1.645,0.802-2.313,1.399c-0.669,0.598-1.208,1.307-1.617,2.128
			c-0.409,0.82-0.613,1.717-0.613,2.688v5.771h3.513v4.402h-12.377v-4.402h4.237v-33.005h-4.237v-4.404h8.864v23.75l-0.167,2.509
			c0.817-1.82,2.007-3.224,3.568-4.209c1.561-0.983,3.401-1.533,5.52-1.645c2.192,0,3.921,0.574,5.185,1.729
			c1.263,1.152,1.932,2.657,2.007,4.517V412.2h3.457v4.402h-12.377v-4.403L381.372,412.198L381.372,412.198z"/>
		<path fill="#FFFFFF" d="M394.918,406.177c0-1.449,0.288-2.843,0.864-4.181s1.366-2.509,2.37-3.513
			c1.003-1.003,2.19-1.804,3.566-2.397c1.375-0.594,2.844-0.892,4.404-0.892c1.003,0,1.932,0.146,2.788,0.444
			c0.854,0.3,1.598,0.622,2.229,0.978c0.632,0.354,1.135,0.696,1.505,1.031c0.371,0.334,0.559,0.558,0.559,0.669
			c0-0.408,0.037-0.836,0.112-1.282c0.072-0.446,0.109-0.895,0.109-1.338h3.849v16.502h4.235v4.402h-8.307v-1.113v-1.115
			c-0.037,0.112-0.225,0.316-0.559,0.613c-0.334,0.298-0.809,0.604-1.422,0.92c-0.611,0.314-1.348,0.596-2.2,0.837
			c-0.855,0.241-1.821,0.362-2.899,0.362c-1.562,0-3.03-0.288-4.404-0.864c-1.375-0.576-2.562-1.366-3.566-2.369
			c-1.005-1.004-1.794-2.165-2.37-3.484C395.205,409.068,394.918,407.664,394.918,406.177z M399.546,406.121
			c0,1.821,0.606,3.354,1.82,4.6c1.212,1.246,2.79,1.868,4.729,1.868c1.941,0,3.52-0.622,4.731-1.868
			c1.212-1.245,1.819-2.776,1.819-4.6c0-1.857-0.606-3.391-1.819-4.6c-1.213-1.207-2.79-1.812-4.731-1.812
			c-1.939,0-3.519,0.604-4.729,1.812C400.152,402.73,399.546,404.264,399.546,406.121z"/>
		<path fill="#FFFFFF" d="M439.854,412.198h4.293v-8.682c-0.073-1.008-0.438-1.876-1.087-2.604c-0.649-0.729-1.682-1.13-3.094-1.205
			c-0.967,0-1.887,0.169-2.76,0.506c-0.874,0.338-1.646,0.809-2.313,1.406c-0.669,0.6-1.208,1.312-1.615,2.136
			c-0.409,0.824-0.613,1.727-0.613,2.698v5.742h3.513v4.402H423.8v-4.402h4.237v-12.1h-3.682v-4.402h7.75v0.501
			c0.074,0.893,0.141,1.7,0.195,2.426c0.058,0.725,0.121,1.533,0.195,2.425c0.743-1.784,1.941-3.205,3.596-4.265
			c1.653-1.062,3.484-1.589,5.492-1.589c2.192,0,3.921,0.574,5.186,1.729c1.264,1.152,1.933,2.657,2.008,4.517v10.761h3.457v4.402
			h-12.378v-4.402H439.854L439.854,412.198z"/>
		<path fill="#FFFFFF" d="M471.352,395.696h8.084v4.402H475.2v19.849c0,1.484-0.288,2.871-0.864,4.151
			c-0.577,1.282-1.366,2.397-2.37,3.348c-1.003,0.945-2.174,1.7-3.512,2.258s-2.788,0.836-4.351,0.836
			c-1.672,0-3.289-0.362-4.85-1.087c-1.561-0.726-2.898-1.479-4.014-2.258l3.064-3.791c0.743,0.558,1.607,1.087,2.594,1.589
			c0.982,0.502,2.016,0.753,3.094,0.753c0.966,0,1.848-0.168,2.646-0.502c0.801-0.335,1.496-0.79,2.092-1.366
			c0.595-0.576,1.051-1.264,1.365-2.062c0.315-0.802,0.476-1.664,0.476-2.595v-3.733c0.072-0.147,0.146-0.309,0.223-0.476
			c0.074-0.167,0.148-0.343,0.223-0.527c-0.109,0.187-0.354,0.418-0.725,0.694c-0.372,0.279-0.855,0.56-1.45,0.837
			c-0.595,0.278-1.292,0.521-2.09,0.727c-0.8,0.203-1.701,0.307-2.704,0.307c-1.561,0-3.03-0.289-4.404-0.863
			c-1.375-0.575-2.562-1.355-3.566-2.343c-1.004-0.982-1.794-2.137-2.37-3.456c-0.577-1.317-0.864-2.723-0.864-4.21
			c0-1.447,0.288-2.843,0.864-4.181s1.366-2.509,2.37-3.513c1.003-1.003,2.19-1.804,3.566-2.397
			c1.375-0.594,2.845-0.892,4.404-0.892c1.003,0,1.933,0.146,2.788,0.444c0.854,0.3,1.598,0.622,2.23,0.978
			c0.631,0.354,1.133,0.695,1.505,1.031c0.37,0.334,0.557,0.558,0.557,0.669c0-0.408,0.037-0.836,0.112-1.282
			C471.314,396.588,471.352,396.142,471.352,395.696z M457.47,406.094c0,1.813,0.606,3.341,1.82,4.58
			c1.212,1.239,2.79,1.859,4.731,1.859c1.939,0,3.518-0.62,4.729-1.859s1.82-2.767,1.82-4.58c0-1.851-0.607-3.377-1.82-4.58
			c-1.213-1.2-2.79-1.804-4.729-1.804c-1.941,0-3.521,0.604-4.731,1.804C458.077,402.717,457.47,404.243,457.47,406.094z"/>
		<path fill="#FFFFFF" d="M500.677,404.449c-2.526,0.929-5.045,1.856-7.554,2.787c-2.509,0.93-5.027,1.857-7.554,2.788
			c0.558,0.778,1.291,1.401,2.202,1.865c0.908,0.467,1.939,0.697,3.094,0.697c1.709,0,3.122-0.595,4.235-1.784l2.845,3.347
			c-0.931,0.93-1.989,1.652-3.18,2.175c-1.188,0.52-2.488,0.778-3.9,0.778c-1.562,0-3.021-0.286-4.376-0.862
			c-1.357-0.576-2.537-1.366-3.54-2.369c-1.004-1.004-1.794-2.165-2.37-3.484c-0.577-1.317-0.864-2.741-0.864-4.266
			c0-1.485,0.288-2.898,0.864-4.236c0.576-1.339,1.366-2.5,2.37-3.483c1.003-0.983,2.183-1.767,3.54-2.343
			c1.354-0.574,2.813-0.862,4.376-0.862c1.149,0,2.258,0.23,3.315,0.695c1.062,0.467,2.009,1.105,2.845,1.925
			c0.836,0.816,1.568,1.794,2.2,2.927C499.859,401.876,500.342,403.111,500.677,404.449z M490.865,399.71
			c-1.896,0-3.438,0.567-4.627,1.7c-1.19,1.135-1.821,2.556-1.896,4.266c1.747-0.632,3.484-1.271,5.213-1.924
			c1.729-0.649,3.465-1.291,5.212-1.924c-0.521-0.631-1.104-1.145-1.756-1.532C492.36,399.905,491.645,399.71,490.865,399.71z"/>
	</g>
</g>
<g>
	<g>
		<g>
			<defs>
				<rect id="SVGID_1_" x="-7" y="359.293" width="1238" height="74.707"/>
			</defs>
			<clipPath id="SVGID_2_">
				<use xlink:href="#SVGID_1_"  overflow="visible"/>
			</clipPath>
			<path clip-path="url(#SVGID_2_)" fill="none" stroke="#FFFFFF" stroke-width="1.8" d="M277.134,431.36
				c7.459-7.459,14.917-14.917,22.376-22.376l0.636-0.638l0.636,0.638c7.404,7.402,14.807,14.807,22.211,22.21l12.137-12.139
				c-7.404-7.401-14.807-14.807-22.21-22.21l-0.637-0.637l0.637-0.637c7.513-7.515,15.027-15.026,22.541-22.541
				c-4.156-4.156-8.312-8.312-12.468-12.468c-7.514,7.514-15.028,15.025-22.542,22.54l-0.636,0.638l-0.636-0.638
				c-7.404-7.402-14.807-14.807-22.211-22.211c-4.045,4.048-8.091,8.094-12.137,12.139c7.404,7.402,14.807,14.808,22.21,22.21
				l0.637,0.638l-0.637,0.636c-7.458,7.459-14.917,14.917-22.375,22.376C268.822,423.049,272.978,427.204,277.134,431.36z"/>
		</g>
	</g>
</g>
<g>
	<g>
		<g>
			<defs>
				<rect id="SVGID_3_" x="-7" y="359.293" width="1238" height="74.707"/>
			</defs>
			<clipPath id="SVGID_4_">
				<use xlink:href="#SVGID_3_"  overflow="visible"/>
			</clipPath>
			<path clip-path="url(#SVGID_4_)" fill="none" stroke="#B9539F" stroke-width="30.35" d="M325.332,395.984"/>
		</g>
	</g>
	<g>
		<g>
			<defs>
				<rect id="SVGID_5_" x="-7" y="359.293" width="1238" height="74.707"/>
			</defs>
			<clipPath id="SVGID_6_">
				<use xlink:href="#SVGID_5_"  overflow="visible"/>
			</clipPath>
			<path clip-path="url(#SVGID_6_)" fill="none" stroke="#B9539F" stroke-width="30.35" d="M432.48,395.984"/>
		</g>
	</g>
</g>
<g>
	<g>
		<g>
			<defs>
				<rect id="SVGID_7_" x="-7" y="359.293" width="1238" height="74.707"/>
			</defs>
			<clipPath id="SVGID_8_">
				<use xlink:href="#SVGID_7_"  overflow="visible"/>
			</clipPath>
			<path clip-path="url(#SVGID_8_)" fill="none" stroke="#B9539F" stroke-width="30.35" d="M432.48,395.663"/>
		</g>
	</g>
</g>
</svg>
