<?xml version="1.0" encoding="utf-8"?>
<!-- Generator: Adobe Illustrator 16.0.4, SVG Export Plug-In . SVG Version: 6.00 Build 0)  -->
<!DOCTYPE svg PUBLIC "-//W3C//DTD SVG 1.1//EN" "http://www.w3.org/Graphics/SVG/1.1/DTD/svg11.dtd">
<svg version="1.1" id="Layer_1" xmlns="http://www.w3.org/2000/svg" xmlns:xlink="http://www.w3.org/1999/xlink" x="0px" y="0px"
	 width="290px" height="317px" viewBox="0 0 290 317" enable-background="new 0 0 290 317" xml:space="preserve">
<polygon fill="none" stroke="#E9EEF8" stroke-miterlimit="10" points="292.084,324.941 317.258,299.768 317.258,294.768 
	287.084,324.941 317.258,294.768 317.258,289.768 282.084,324.941 317.258,289.768 317.258,284.768 277.084,324.941 
	317.258,284.768 317.258,279.768 272.084,324.941 317.258,279.768 317.258,274.768 267.084,324.941 317.258,274.768 
	317.258,269.768 262.084,324.941 317.258,269.768 317.258,264.768 257.084,324.941 317.258,264.768 317.258,259.768 
	252.084,324.941 317.258,259.768 317.258,254.768 247.084,324.941 317.258,254.768 317.258,249.768 242.084,324.941 
	317.258,249.768 317.258,244.768 237.084,324.941 317.258,244.768 317.258,239.768 232.084,324.941 317.258,239.768 
	317.258,234.768 227.084,324.941 317.258,234.768 317.258,229.768 222.084,324.941 317.258,229.768 317.258,224.768 
	217.084,324.941 317.258,224.768 317.258,219.768 212.084,324.941 317.258,219.768 317.258,214.768 207.084,324.941 
	317.258,214.768 317.258,209.768 202.084,324.941 317.258,209.768 317.258,204.768 197.084,324.941 317.258,204.768 
	317.258,199.768 192.084,324.941 317.258,199.768 317.258,194.768 187.084,324.941 317.258,194.768 317.258,189.768 
	182.084,324.941 317.258,189.768 317.258,184.768 177.084,324.941 317.258,184.768 317.258,179.768 172.084,324.941 
	317.258,179.768 317.258,174.768 167.084,324.941 317.258,174.768 317.258,169.768 162.084,324.941 317.258,169.768 
	317.258,164.768 157.084,324.941 317.258,164.768 317.258,159.768 152.084,324.941 317.258,159.768 317.258,154.768 
	147.084,324.941 317.258,154.768 317.258,149.768 142.084,324.941 317.258,149.768 317.258,144.768 137.084,324.941 
	317.258,144.768 317.258,139.768 132.084,324.941 317.258,139.768 317.258,134.768 127.084,324.941 317.258,134.768 
	317.258,129.767 122.084,324.941 317.258,129.767 317.258,124.767 117.084,324.941 317.258,124.767 317.258,119.767 
	112.084,324.941 317.258,119.767 317.258,114.767 107.084,324.941 317.258,114.767 317.258,109.767 102.084,324.941 
	317.258,109.767 317.258,104.767 97.084,324.941 317.258,104.767 317.258,99.767 92.084,324.941 317.258,99.767 317.258,94.767 
	87.084,324.941 317.258,94.767 317.258,89.767 82.084,324.941 317.258,89.767 317.258,84.767 77.084,324.941 317.258,84.767 
	317.258,79.767 72.084,324.941 317.258,79.767 317.258,74.767 67.084,324.941 317.258,74.767 317.258,69.767 62.084,324.941 
	317.258,69.767 317.258,64.767 57.084,324.941 317.258,64.767 317.258,59.767 52.084,324.941 317.258,59.767 317.258,54.767 
	47.084,324.941 317.258,54.767 317.258,49.767 42.084,324.941 317.258,49.767 317.258,44.767 37.084,324.941 317.258,44.767 
	317.258,39.767 32.084,324.941 317.258,39.767 317.258,34.767 27.084,324.941 317.258,34.767 317.258,29.767 22.084,324.941 
	317.258,29.767 317.258,24.767 17.084,324.941 317.258,24.767 317.258,19.767 12.084,324.941 317.258,19.767 317.258,14.767 
	7.084,324.941 317.258,14.767 317.258,9.767 2.084,324.941 317.258,9.767 317.258,4.767 -2.916,324.941 317.258,4.767 
	317.258,-0.233 -7.916,324.941 317.258,-0.233 317.258,-5.233 -12.916,324.941 317.258,-5.233 317.258,-10.233 -17.916,324.941 
	317.258,-10.233 317.258,-15.233 -22.916,324.941 317.258,-15.233 317.258,-28.19 -27.829,-28.19 -27.829,19.854 7.258,-15.233 
	-27.829,19.854 -27.829,24.854 12.258,-15.233 -27.829,24.854 -27.829,29.854 17.258,-15.233 -27.829,29.854 -27.829,34.854 
	22.258,-15.233 -27.829,34.854 -27.829,39.854 27.258,-15.233 -27.829,39.854 -27.829,44.854 32.258,-15.233 -27.829,44.854 
	-27.829,49.854 37.258,-15.233 -27.829,49.854 -27.829,54.854 42.258,-15.233 -27.829,54.854 -27.829,59.854 47.258,-15.233 
	-27.829,59.854 -27.829,64.854 52.258,-15.233 -27.829,64.854 -27.829,69.854 57.258,-15.233 -27.829,69.854 -27.829,74.854 
	62.258,-15.233 -27.829,74.854 -27.829,79.854 67.258,-15.233 -27.829,79.854 -27.829,84.854 72.258,-15.233 -27.829,84.854 
	-27.829,89.854 77.258,-15.233 -27.829,89.854 -27.829,94.854 82.258,-15.233 -27.829,94.854 -27.829,99.854 87.258,-15.233 
	-27.829,99.854 -27.829,104.854 92.258,-15.233 -27.829,104.854 -27.829,109.854 97.258,-15.233 -27.829,109.854 -27.829,114.854 
	102.258,-15.233 -27.829,114.854 -27.829,119.854 107.258,-15.233 -27.829,119.854 -27.829,124.854 112.258,-15.233 
	-27.829,124.854 -27.829,129.854 117.258,-15.233 -27.829,129.854 -27.829,134.854 122.258,-15.233 -27.829,134.854 
	-27.829,139.854 127.258,-15.233 -27.829,139.854 -27.829,144.854 132.258,-15.233 -27.829,144.854 -27.829,149.854 
	137.258,-15.233 -27.829,149.854 -27.829,154.854 142.258,-15.233 -27.829,154.854 -27.829,159.854 147.258,-15.233 
	-27.829,159.854 -27.829,164.854 152.258,-15.233 -27.829,164.854 -27.829,169.854 157.258,-15.233 -27.829,169.854 
	-27.829,174.854 162.258,-15.233 -27.829,174.854 -27.829,179.854 167.258,-15.233 -27.829,179.854 -27.829,184.854 
	172.258,-15.233 -27.829,184.854 -27.829,189.854 177.258,-15.233 -27.829,189.854 -27.829,194.854 182.258,-15.233 
	-27.829,194.854 -27.829,199.854 187.258,-15.233 -27.829,199.854 -27.829,204.854 192.258,-15.233 -27.829,204.854 
	-27.829,209.854 197.258,-15.233 -27.829,209.854 -27.829,214.854 202.258,-15.233 -27.829,214.854 -27.829,219.854 
	207.258,-15.233 -27.829,219.854 -27.829,224.854 212.258,-15.233 -27.829,224.854 -27.829,229.854 217.258,-15.233 
	-27.829,229.854 -27.829,234.854 222.258,-15.233 -27.829,234.854 -27.829,239.854 227.258,-15.233 -27.829,239.854 
	-27.829,244.854 232.258,-15.233 -27.829,244.854 -27.829,249.854 237.258,-15.233 -27.829,249.854 -27.829,254.854 
	242.258,-15.233 -27.829,254.854 -27.829,259.854 247.258,-15.233 -27.829,259.854 -27.829,264.854 252.258,-15.233 
	-27.829,264.854 -27.829,269.854 257.258,-15.233 -27.829,269.854 -27.829,274.854 262.258,-15.233 -27.829,274.854 
	-27.829,279.854 267.258,-15.233 -27.829,279.854 -27.829,284.854 272.258,-15.233 -27.829,284.854 -27.829,289.854 
	277.258,-15.233 -27.829,289.854 -27.829,294.854 282.258,-15.233 -27.829,294.854 -27.829,299.854 287.258,-15.233 
	-27.829,299.854 -27.829,304.854 292.258,-15.233 -27.829,304.854 -27.829,309.854 297.258,-15.233 -27.829,309.854 
	-27.829,314.854 302.258,-15.233 -27.829,314.854 -27.829,319.854 307.258,-15.233 -27.829,319.854 -27.829,324.854 
	312.258,-15.233 -27.829,324.854 -27.829,326.942 317.258,326.942 317.258,299.768 "/>
</svg>
