<?xml version="1.0" encoding="utf-8"?>
<!-- Generator: Adobe Illustrator 16.0.4, SVG Export Plug-In . SVG Version: 6.00 Build 0)  -->
<!DOCTYPE svg PUBLIC "-//W3C//DTD SVG 1.1//EN" "http://www.w3.org/Graphics/SVG/1.1/DTD/svg11.dtd">
<svg version="1.1" id="Layer_1" xmlns="http://www.w3.org/2000/svg" xmlns:xlink="http://www.w3.org/1999/xlink" x="0px" y="0px"
	 width="108px" height="28.55px" viewBox="0 0 108 28.55" enable-background="new 0 0 108 28.55" xml:space="preserve">
<g>
	<defs>
		<rect id="SVGID_1_" x="-0.062" width="107.062" height="28.55"/>
	</defs>
	<clipPath id="SVGID_2_">
		<use xlink:href="#SVGID_1_"  overflow="visible"/>
	</clipPath>
	<path clip-path="url(#SVGID_2_)" fill="#F2A443" d="M12.938,0.516C12.428,0.517,0.453,0.679,0.453,13v2.55
		c0.001,0.509,0.163,12.483,12.485,12.483H94c0.51-0.001,12.484-0.161,12.484-12.483V13C106.482,12.49,106.32,0.516,94,0.516H12.938
		z"/>
	<path clip-path="url(#SVGID_2_)" fill="none" d="M12.938,0.516C12.428,0.517,0.453,0.679,0.453,13v2.55
		c0.001,0.509,0.163,12.483,12.485,12.483H94c0.51-0.001,12.484-0.161,12.484-12.483V13C106.482,12.49,106.32,0.516,94,0.516H12.938
		z"/>
</g>
<text transform="matrix(1 0 0 1 27.4102 19.2842)" fill="#FFFFFF" font-family="'Arial-BoldMT'" font-size="14">SIGN UP</text>
</svg>
